<svg width="61" height="105" xmlns="http://www.w3.org/2000/svg" xmlns:xlink="http://www.w3.org/1999/xlink" overflow="hidden"><defs><clipPath id="clip0"><rect x="370" y="435" width="61" height="105"/></clipPath><clipPath id="clip1"><rect x="371" y="436" width="60" height="103"/></clipPath><clipPath id="clip2"><rect x="371" y="436" width="60" height="103"/></clipPath><clipPath id="clip3"><rect x="371" y="436" width="60" height="103"/></clipPath><clipPath id="clip4"><path d="M427.252 465.687C427.252 479.904 415.5 491.429 401.004 491.429 386.508 491.429 374.757 479.904 374.757 465.687 374.757 451.469 386.508 439.944 401.004 439.944 415.5 439.944 427.252 451.469 427.252 465.687Z"/></clipPath></defs><g clip-path="url(#clip0)" transform="translate(-370 -435)"><g clip-path="url(#clip1)"><g clip-path="url(#clip2)"><g clip-path="url(#clip3)"><g clip-path="url(#clip4)"><path d="M57.5981 39.4463 109.323 39.4463 109.323 81.6852 57.5981 81.6852Z" fill="#3E9243" transform="matrix(1.00783 0 -0 1 317.982 405.123)"/><path d="M57.5981 45.3734 57.4375 75.9435 109.162 75.9435 109.323 45.3734Z" fill="#FFD731" transform="matrix(1.00783 0 -0 1 317.982 405.123)"/><path d="M58.0059 51.807 57.4663 69.481 109.187 69.481 109.731 51.807Z" fill="#DD2A22" transform="matrix(1.00783 0 -0 1 317.982 405.123)"/><path d="M57.5981 57.5446 109.323 57.5446 109.323 63.5787 57.5981 63.5787Z" fill="#202020" transform="matrix(1.00783 0 -0 1 317.982 405.123)"/><path d="M62.5614 39.4463 61.0085 39.4463 61.0085 81.6811 62.5614 81.6811 91.0515 60.5637Z" fill="#202020" transform="matrix(1.00783 0 -0 1 317.982 405.123)"/><path d="M61.0085 39.4463 61.0085 81.6811 89.4987 60.5637Z" fill="#FFFFFF" transform="matrix(1.00783 0 -0 1 317.982 405.123)"/><path d="M2.73492 2.14593 2.96146 1.98941 2.70197 1.94822 2.58664 1.71756 2.47132 1.94822 2.21183 1.98941 2.43836 2.14593 2.38894 2.3807 2.58664 2.26537 2.78435 2.3807Z" fill="#DD2A22" transform="matrix(1.00783 0 -0 1 317.982 405.123)"/><path d="M2.86261 2.12945C2.85025 2.11709 2.65666 1.97705 2.61959 1.94822 2.57841 1.91939 2.57017 1.90703 2.57017 1.90703 2.57017 1.90703 2.5331 1.84113 2.52074 1.82465 2.50839 1.80406 2.48367 1.77935 2.45484 1.77935 2.42601 1.77935 2.40541 1.79582 2.39718 1.82877 2.39306 1.82877 2.36834 1.84525 2.36834 1.86172 2.37658 1.86172 2.42189 1.84937 2.43836 1.89879 2.45484 1.95234 2.45484 2.03472 2.43836 2.08002 2.42189 2.12121 2.39718 2.15416 2.39718 2.19123 2.39718 2.19535 2.4013 2.20771 2.40953 2.20771 2.41365 2.22418 2.43836 2.33951 2.43836 2.33951L2.78435 2.33951 2.83789 2.12945C2.85025 2.12945 2.85849 2.12945 2.86261 2.12945Z" fill="#FFC618" transform="matrix(1.00783 0 -0 1 317.982 405.123)"/><path d="M2.86261 2.12945C2.85025 2.11709 2.65666 1.97705 2.61959 1.94822 2.57841 1.91939 2.57017 1.90703 2.57017 1.90703 2.57017 1.90703 2.5331 1.84113 2.52074 1.82465 2.50839 1.80406 2.48367 1.77935 2.45484 1.77935 2.42601 1.77935 2.40541 1.79582 2.39718 1.82877 2.39306 1.82877 2.36834 1.84525 2.36834 1.86172L2.36834 1.86172 2.36834 1.86172C2.36834 1.86172 2.36834 1.86172 2.37246 1.86172 2.40541 1.85761 2.43013 1.86996 2.43836 1.89879 2.45484 1.95234 2.45484 2.03884 2.43836 2.08002 2.43425 2.09238 2.42601 2.10886 2.42189 2.12121 2.40953 2.14593 2.39718 2.16652 2.39718 2.19123 2.39718 2.19535 2.4013 2.20771 2.40953 2.20771 2.41365 2.22418 2.43836 2.33951 2.43836 2.33951L2.43836 2.33951 2.78435 2.33951 2.80082 2.28185 2.80082 2.28185 2.80082 2.28185 2.84201 2.12945C2.84613 2.12945 2.85437 2.12945 2.86261 2.12945L2.86261 2.12945 2.86261 2.12945ZM2.43836 1.89879C2.43013 1.8782 2.42189 1.86584 2.40541 1.86172 2.39306 1.85761 2.3807 1.86172 2.37246 1.86172 2.37246 1.86172 2.37246 1.86172 2.36834 1.86172 2.36834 1.84525 2.39306 1.83289 2.39718 1.82877L2.39718 1.82877 2.39718 1.82877C2.40541 1.79582 2.42601 1.77935 2.45484 1.77935 2.48367 1.77935 2.50427 1.80406 2.52074 1.82465 2.5331 1.84113 2.56605 1.90291 2.57017 1.90703 2.55369 1.91527 2.45484 1.96058 2.45072 1.96058 2.4466 1.93998 2.44248 1.91527 2.43836 1.89879ZM2.43425 2.33951C2.43425 2.33539 2.40953 2.22418 2.40541 2.20771 2.40953 2.20771 2.47543 2.20359 2.49603 2.20359 2.49603 2.21183 2.49603 2.22418 2.50015 2.23654L2.50015 2.23654 2.50015 2.23654C2.50427 2.28185 2.5125 2.33127 2.5125 2.33539L2.43425 2.33539ZM2.50427 2.23654 2.5331 2.26537C2.51662 2.26537 2.50839 2.26537 2.50427 2.26537 2.50427 2.25714 2.50427 2.2489 2.50427 2.23654ZM2.78023 2.33951 2.5125 2.33951C2.5125 2.33539 2.50839 2.30244 2.50427 2.26949 2.50427 2.26949 2.51662 2.26949 2.5331 2.26949L2.5331 2.26949 2.5331 2.26949C2.54957 2.26949 2.57017 2.26949 2.59076 2.26949L2.59076 2.26949 2.59076 2.26949C2.61136 2.26949 2.63195 2.26949 2.65255 2.27361L2.65255 2.27361 2.65255 2.27361C2.67314 2.27361 2.69373 2.27773 2.71021 2.27773L2.71021 2.27773 2.71433 2.27773C2.73904 2.27773 2.75964 2.28185 2.78435 2.28597L2.78023 2.33951ZM2.53722 2.26537 2.56605 2.23654 2.59488 2.26537C2.57429 2.26537 2.55369 2.26537 2.53722 2.26537ZM2.599 2.26949 2.62783 2.24066 2.65666 2.26949C2.64019 2.26949 2.61959 2.26949 2.599 2.26949ZM2.6649 2.26949 2.69785 2.24478 2.72257 2.27361C2.70197 2.27361 2.6855 2.26949 2.6649 2.26949ZM2.79671 2.28185C2.77611 2.27773 2.7514 2.27773 2.7308 2.27361L2.76375 2.2489 2.79671 2.28185 2.79671 2.28185 2.79671 2.28185ZM2.79671 2.27773 2.75964 2.24478 2.72669 2.26949 2.69785 2.23654 2.6649 2.26537 2.63195 2.23242 2.599 2.26537 2.56605 2.23242 2.53722 2.26537 2.50427 2.23654 2.50427 2.23654C2.50427 2.22418 2.50015 2.21183 2.50015 2.20359L2.5331 2.23654 2.5331 2.23654 2.57017 2.20771 2.599 2.24066 2.599 2.24066 2.63607 2.21183 2.6649 2.24478 2.6649 2.24478 2.69785 2.21595 2.72669 2.2489 2.72669 2.2489 2.75964 2.22418 2.80082 2.26125 2.79671 2.27773ZM2.50015 2.19947C2.50015 2.19947 2.50015 2.19947 2.50015 2.19947 2.5125 2.19947 2.53722 2.19947 2.56605 2.19947L2.5331 2.2283 2.50015 2.19947ZM2.57017 2.20359C2.59076 2.20359 2.61136 2.20359 2.63607 2.20771L2.60312 2.23654 2.57017 2.20359ZM2.63607 2.20359C2.65666 2.20359 2.67726 2.20771 2.69785 2.20771L2.6649 2.23654 2.63607 2.20359ZM2.70197 2.20771C2.72257 2.20771 2.74316 2.21183 2.76375 2.21595L2.7308 2.24066 2.70197 2.20771ZM2.80494 2.25302 2.76375 2.21595C2.78023 2.22007 2.79671 2.22007 2.81318 2.22418L2.80494 2.25302ZM2.82142 2.17476C2.70197 2.15004 2.54957 2.15004 2.5331 2.15004 2.5331 2.15004 2.53722 2.15004 2.53722 2.14593 2.54546 2.14181 2.55781 2.13769 2.57017 2.12945L2.57017 2.12945C2.57017 2.12945 2.59076 2.12945 2.60724 2.12945 2.61959 2.12945 2.63195 2.12945 2.63607 2.12945 2.64843 2.12533 2.66078 2.11709 2.66902 2.10062 2.72257 2.11298 2.79259 2.12121 2.83789 2.12533L2.82142 2.17476ZM2.60724 2.12945C2.59076 2.12945 2.57841 2.12945 2.57429 2.12945 2.59488 2.11709 2.61136 2.10062 2.61548 2.08826 2.62371 2.09238 2.63195 2.09238 2.64431 2.0965 2.63607 2.11709 2.60724 2.12945 2.60724 2.12945ZM2.64019 2.0965C2.64843 2.0965 2.65666 2.10062 2.66902 2.10062 2.6649 2.11709 2.64843 2.12533 2.63607 2.12945 2.63195 2.12945 2.61959 2.12945 2.60724 2.12945 2.61136 2.12945 2.63607 2.11298 2.64019 2.0965ZM2.61136 2.08826C2.54957 2.06767 2.54546 2.06355 2.52074 2.01L2.52074 2.01C2.54546 2.06355 2.54957 2.06767 2.61136 2.08826 2.60724 2.11298 2.55369 2.14181 2.53722 2.14593 2.5331 2.14593 2.5331 2.14593 2.52898 2.15004 2.52898 2.15004 2.52898 2.15004 2.52898 2.15004L2.52898 2.15004C2.50015 2.1624 2.48779 2.17476 2.47955 2.183 2.47132 2.19123 2.47543 2.19947 2.47543 2.19947L2.47543 2.19947C2.47543 2.19947 2.47543 2.19123 2.47955 2.183 2.48367 2.17476 2.50015 2.1624 2.52898 2.15004 2.53722 2.15004 2.69373 2.15004 2.82142 2.17476L2.80906 2.22418C2.79259 2.22007 2.77611 2.21595 2.75964 2.21595L2.75964 2.21595 2.75964 2.21595C2.73904 2.21183 2.71845 2.21183 2.69785 2.20771L2.69785 2.20771 2.69785 2.20771C2.67726 2.20771 2.65255 2.20359 2.63195 2.20359L2.63195 2.20359 2.63195 2.20359C2.60724 2.20359 2.58664 2.20359 2.56605 2.19947L2.56605 2.19947 2.56605 2.19947C2.5331 2.19947 2.50839 2.19947 2.50015 2.19947 2.50015 2.19947 2.50015 2.19947 2.50015 2.19947L2.50015 2.19947 2.50015 2.19947C2.48779 2.19947 2.45484 2.19947 2.43425 2.20359 2.43425 2.20359 2.42601 2.19535 2.43013 2.17888 2.43013 2.17476 2.43836 2.16652 2.44248 2.15828 2.45896 2.13357 2.48367 2.0965 2.48367 2.05119L2.48367 2.05119C2.48367 2.0965 2.45896 2.13357 2.44248 2.15828 2.43425 2.16652 2.43013 2.17476 2.43013 2.17888 2.42601 2.19535 2.43013 2.20359 2.43425 2.20359 2.42189 2.20359 2.40953 2.20359 2.40953 2.20359 2.4013 2.20359 2.39718 2.19535 2.39718 2.18711 2.39718 2.1624 2.40953 2.14181 2.42189 2.11709 2.43013 2.10474 2.43425 2.09238 2.43836 2.07591 2.4466 2.05531 2.45072 2.02648 2.45072 1.98941 2.45072 1.98117 2.45072 1.96881 2.45072 1.96058 2.45072 1.96058 2.54957 1.91115 2.57017 1.90703 2.57017 1.90703 2.58253 1.91939 2.61959 1.94822 2.65666 1.97705 2.84613 2.11298 2.86261 2.12945 2.8173 2.12533 2.66902 2.10886 2.61136 2.08826Z" fill="#202020" transform="matrix(1.00783 0 -0 1 317.982 405.123)"/><path d="M2.599 2.19123C2.60724 2.19123 2.61548 2.183 2.61548 2.17476 2.61548 2.16652 2.60724 2.15828 2.599 2.15828 2.59076 2.15828 2.58253 2.16652 2.58253 2.17476 2.58253 2.18711 2.59076 2.19123 2.599 2.19123ZM2.599 2.16652C2.60724 2.16652 2.61136 2.17064 2.61136 2.17888 2.61136 2.18711 2.60724 2.19123 2.599 2.19123 2.59076 2.19123 2.58664 2.18711 2.58664 2.17888 2.58664 2.17064 2.59076 2.16652 2.599 2.16652Z" fill="#202020" transform="matrix(1.00783 0 -0 1 317.982 405.123)"/><path d="M2.65666 2.19535C2.6649 2.19535 2.67314 2.18711 2.67314 2.17888 2.67314 2.17064 2.6649 2.1624 2.65666 2.1624 2.64843 2.1624 2.64019 2.17064 2.64019 2.17888 2.64019 2.19123 2.64843 2.19535 2.65666 2.19535ZM2.65666 2.17064C2.6649 2.17064 2.66902 2.17476 2.66902 2.183 2.66902 2.19123 2.6649 2.19535 2.65666 2.19535 2.64843 2.19535 2.64431 2.19123 2.64431 2.183 2.64431 2.17476 2.64843 2.17064 2.65666 2.17064Z" fill="#202020" transform="matrix(1.00783 0 -0 1 317.982 405.123)"/><path d="M2.44248 1.80818C2.43425 1.80818 2.43013 1.8123 2.43013 1.82054 2.43013 1.82877 2.43425 1.83289 2.44248 1.83289 2.45072 1.83289 2.45484 1.82877 2.45484 1.82054 2.45484 1.81642 2.45072 1.80818 2.44248 1.80818ZM2.44248 1.82877C2.43836 1.82877 2.43425 1.82465 2.43425 1.82054 2.43425 1.81642 2.43836 1.8123 2.44248 1.8123 2.4466 1.8123 2.45072 1.81642 2.45072 1.82054 2.45072 1.82465 2.4466 1.82877 2.44248 1.82877Z" fill="#202020" transform="matrix(1.00783 0 -0 1 317.982 405.123)"/></g><path d="M82.3772 88.1436C66.9891 88.1436 54.4719 75.7705 54.4719 60.5637 54.4719 45.3528 66.9891 32.9797 82.3772 32.9797 97.7653 32.9797 110.282 45.3569 110.282 60.5637 110.282 75.7747 97.7653 88.1436 82.3772 88.1436ZM82.3772 40.336C71.0956 40.336 61.9147 49.4098 61.9147 60.5678 61.9147 71.7176 71.0956 80.7914 82.3772 80.7914 93.6587 80.7914 102.84 71.7217 102.84 60.5678 102.84 49.414 93.6587 40.336 82.3772 40.336Z" fill="#FFFFFF" transform="matrix(1.00783 0 -0 1 317.982 405.123)"/><path d="M103.61 83.5799C109.055 75.89 112.14 68.9785 112.14 60.5637 112.14 44.1789 98.8114 30.8914 82.3731 30.8914 65.9347 30.8914 52.6061 44.1789 52.6061 60.5637 52.6061 68.9785 55.687 75.89 61.1362 83.5799 69.6252 95.5658 77.451 110.385 79.5269 129.703 79.564 130.016 79.494 130.869 79.494 130.996 79.494 132.582 80.7791 133.863 82.369 133.863 83.9588 133.863 85.2398 132.582 85.2398 130.996 85.2398 130.869 85.1698 130.016 85.2068 129.703 87.2951 110.385 95.1168 95.5658 103.61 83.5799ZM82.3484 84.4696C68.9909 84.4696 58.1624 73.7688 58.1624 60.5678 58.1624 47.3628 68.9909 36.6579 82.3484 36.6579 95.7058 36.6579 106.534 47.3587 106.534 60.5678 106.53 73.7688 95.7058 84.4696 82.3484 84.4696Z" fill="#EFA139" transform="matrix(1.00783 0 -0 1 317.982 405.123)"/></g></g></g></g></svg>